<svg xmlns="http://www.w3.org/2000/svg" width="128" height="128" viewBox="0 0 128 128">
  <rect width="128" height="128" rx="0" fill="#121826" />
  <rect x="16" y="16" width="96" height="96" fill="#20283a" />
  <rect x="20" y="20" width="88" height="88" fill="#2b3448" />
  <rect x="32" y="20" width="12" height="56" fill="#63e6be" />
  <rect x="44" y="32" width="12" height="12" fill="#63e6be" />
  <rect x="56" y="44" width="12" height="12" fill="#63e6be" />
  <rect x="68" y="56" width="12" height="20" fill="#63e6be" />
  <rect x="24" y="72" width="16" height="16" fill="#95a3b8" />
  <rect x="40" y="88" width="16" height="16" fill="#95a3b8" />
  <rect x="72" y="88" width="16" height="16" fill="#95a3b8" />
  <rect x="88" y="72" width="16" height="16" fill="#95a3b8" />
  <rect x="48" y="76" width="32" height="20" fill="#f2c94c" />
  <rect x="80" y="76" width="16" height="20" fill="#ff6b6b" />
  <rect x="52" y="80" width="12" height="4" fill="#fff2bd" />
  <rect x="24" y="108" width="80" height="4" fill="#0a0f18" />
</svg>
